<svg width="180" height="180" viewBox="0 0 180 180" fill="none" xmlns="http://www.w3.org/2000/svg">
  <defs>
    <linearGradient id="accent" x1="38" y1="138" x2="142" y2="138" gradientUnits="userSpaceOnUse">
      <stop stop-color="#7BF6D2"/>
      <stop offset="0.5" stop-color="#9AAEFF"/>
      <stop offset="1" stop-color="#FFD36A"/>
    </linearGradient>
  </defs>

  <g transform="translate(10 8)">
    <path d="M54 139C68 129 87 127 104 133C116 138 126 139 136 136" stroke="url(#accent)" stroke-width="3.5" stroke-linecap="round" stroke-dasharray="9 10">
      <animate attributeName="stroke-dashoffset" values="0;-76" dur="4.8s" repeatCount="indefinite"/>
    </path>

    <path d="M105 46C112 35 125 29 137 29C130 37 128 49 130 61C131 70 129 80 122 87L110 77C104 71 102 57 105 46Z" fill="#111827"/>
    <path d="M103 48C110 37 122 31 133 30C126 39 124 49 126 60C127 69 125 77 119 84" stroke="#E8EEF5" stroke-width="3.2" stroke-linecap="round" stroke-linejoin="round"/>

    <path d="M46 108C46 91 57 75 74 68C82 65 90 64 98 65C105 66 112 69 118 74C129 83 136 96 136 110C136 122 132 131 123 139C115 146 104 150 90 150H74C66 150 59 148 53 143C48 138 46 131 46 122V108Z" fill="#F7F9FC"/>
    <path d="M46 108C46 91 57 75 74 68C82 65 90 64 98 65C105 66 112 69 118 74C129 83 136 96 136 110C136 122 132 131 123 139C115 146 104 150 90 150H74C66 150 59 148 53 143C48 138 46 131 46 122V108Z" stroke="#D8E2EE" stroke-width="3.2" stroke-linejoin="round"/>

    <path d="M73 73C78 54 90 42 105 39C112 37 119 38 126 41C117 44 111 50 108 58C105 66 106 74 111 81L101 86C94 79 90 71 89 62C82 66 77 72 73 80" fill="#111827"/>
    <path d="M74 77C78 59 89 47 103 43C110 41 117 42 123 45C115 48 109 53 106 61C103 68 104 75 109 82" stroke="#111827" stroke-width="3.2" stroke-linecap="round" stroke-linejoin="round"/>

    <path d="M129 104L156 112L129 122C123 117 123 109 129 104Z" fill="#F3A25D"/>
    <circle cx="118" cy="100" r="4.8" fill="#111827"/>

    <path d="M96 150L89 159" stroke="#E7C86B" stroke-width="3.2" stroke-linecap="round"/>
    <path d="M111 149L104 159" stroke="#E7C86B" stroke-width="3.2" stroke-linecap="round"/>

    <path d="M31 97C35 91 40 86 47 83" stroke="#9AAEFF" stroke-opacity="0.5" stroke-width="2.4" stroke-linecap="round"/>
    <path d="M28 111C34 107 39 105 44 105" stroke="#7BF6D2" stroke-opacity="0.5" stroke-width="2.4" stroke-linecap="round"/>
  </g>
</svg>
