<svg width="180" height="180" viewBox="0 0 180 180" fill="none" xmlns="http://www.w3.org/2000/svg">
  <defs>
    <linearGradient id="gooseBg" x1="22" y1="18" x2="160" y2="164" gradientUnits="userSpaceOnUse">
      <stop stop-color="#09121E"/>
      <stop offset="1" stop-color="#102235"/>
    </linearGradient>
    <linearGradient id="gooseLine" x1="48" y1="44" x2="132" y2="128" gradientUnits="userSpaceOnUse">
      <stop stop-color="#7BF6D2"/>
      <stop offset="1" stop-color="#FFD36A"/>
    </linearGradient>
  </defs>
  <rect x="10" y="10" width="160" height="160" rx="28" fill="url(#gooseBg)"/>
  <path d="M60 116C60 95 75 80 95 80C102 80 110 82 117 87C113 72 116 60 127 49C131 45 134 42 138 40C136 47 137 56 141 67C144 77 143 88 136 96C146 101 152 111 152 123C152 139 139 152 121 152H84C70 152 60 141 60 128V116Z" fill="#F7FBFF"/>
  <path d="M117 87C110 82 102 80 95 80C75 80 60 95 60 116V128C60 141 70 152 84 152H121C139 152 152 139 152 123C152 111 146 101 136 96" stroke="#DCE7F4" stroke-width="3" stroke-linecap="round" stroke-linejoin="round"/>
  <path d="M127 49C116 60 113 72 117 87" stroke="#DCE7F4" stroke-width="3" stroke-linecap="round"/>
  <path d="M138 40C134 42 131 45 127 49" stroke="#DCE7F4" stroke-width="3" stroke-linecap="round"/>
  <path d="M129 62C135 61 141 63 146 68" stroke="url(#gooseLine)" stroke-width="3" stroke-linecap="round"/>
  <circle cx="112" cy="95" r="4" fill="#09121E"/>
  <path d="M142 99L162 105L143 113C138 109 137 103 142 99Z" fill="#FF9A5B"/>
  <path d="M76 154C84 146 95 142 109 142" stroke="url(#gooseLine)" stroke-width="3" stroke-linecap="round" stroke-dasharray="8 8">
    <animate attributeName="stroke-dashoffset" values="0;-64" dur="4s" repeatCount="indefinite"/>
  </path>
  <text x="28" y="34" fill="#7BF6D2" font-family="'Segoe UI', sans-serif" font-size="12" letter-spacing="0.18em">WATERLOO MODE</text>
</svg>
