<svg width="1200" height="620" viewBox="0 0 1200 620" fill="none" xmlns="http://www.w3.org/2000/svg">
  <defs>
    <linearGradient id="bg" x1="78" y1="44" x2="1138" y2="576" gradientUnits="userSpaceOnUse">
      <stop stop-color="#07101B"/>
      <stop offset="0.52" stop-color="#0B1C2D"/>
      <stop offset="1" stop-color="#08141D"/>
    </linearGradient>
    <radialGradient id="glowA" cx="0" cy="0" r="1" gradientUnits="userSpaceOnUse" gradientTransform="translate(930 118) rotate(132.179) scale(340.005 291.714)">
      <stop stop-color="#6AF0D0" stop-opacity="0.22"/>
      <stop offset="1" stop-color="#6AF0D0" stop-opacity="0"/>
    </radialGradient>
    <radialGradient id="glowB" cx="0" cy="0" r="1" gradientUnits="userSpaceOnUse" gradientTransform="translate(260 536) rotate(-20.806) scale(398.578 212.346)">
      <stop stop-color="#FF8858" stop-opacity="0.14"/>
      <stop offset="1" stop-color="#FF8858" stop-opacity="0"/>
    </radialGradient>
    <linearGradient id="line" x1="133" y1="109" x2="1069" y2="506" gradientUnits="userSpaceOnUse">
      <stop stop-color="#7BF6D2"/>
      <stop offset="0.52" stop-color="#9DAEFF"/>
      <stop offset="1" stop-color="#FFD36A"/>
    </linearGradient>
    <pattern id="grid" width="52" height="52" patternUnits="userSpaceOnUse">
      <path d="M52 0H0V52" stroke="#9DB0CA" stroke-opacity="0.08"/>
    </pattern>
  </defs>

  <rect width="1200" height="620" rx="30" fill="url(#bg)"/>
  <rect width="1200" height="620" rx="30" fill="url(#grid)"/>
  <ellipse cx="930" cy="118" rx="324" ry="248" fill="url(#glowA)"/>
  <ellipse cx="260" cy="536" rx="374" ry="196" fill="url(#glowB)"/>

  <rect x="74" y="72" width="1052" height="476" rx="28" fill="#081321" fill-opacity="0.46" stroke="#7DA6B5" stroke-opacity="0.24"/>
  <rect x="108" y="104" width="984" height="412" rx="22" fill="#0A1522" fill-opacity="0.54" stroke="#B2C4D8" stroke-opacity="0.08"/>

  <line x1="142" y1="168.5" x2="1058" y2="168.5" stroke="#9DB0CA" stroke-opacity="0.12"/>
  <line x1="142" y1="438.5" x2="1058" y2="438.5" stroke="#9DB0CA" stroke-opacity="0.08"/>

  <text x="146" y="138" fill="#7BF6D2" font-family="'Segoe UI', sans-serif" font-size="14" letter-spacing="0.24em">JONATHAN LYASHKO</text>
  <text x="146" y="254" fill="#F8FBFF" font-family="'Segoe UI', sans-serif" font-size="82" font-weight="700">Systems thinker.</text>
  <text x="146" y="336" fill="#F8FBFF" font-family="'Segoe UI', sans-serif" font-size="82" font-weight="700">Computer engineer.</text>

  <text x="148" y="394" fill="#B9C8DC" font-family="'Segoe UI', sans-serif" font-size="30">
    Robotics. FPGA. Infrastructure.
  </text>

  <g opacity="0.96">
    <rect x="148" y="462" width="174" height="50" rx="12" fill="#0E1C2C" stroke="#2A4A62"/>
    <rect x="338" y="462" width="164" height="50" rx="12" fill="#0E1C2C" stroke="#2A4A62"/>
    <rect x="518" y="462" width="164" height="50" rx="12" fill="#0E1C2C" stroke="#2A4A62"/>
    <text x="193" y="493" fill="#F8FBFF" font-family="'Segoe UI', sans-serif" font-size="20">Revvity</text>
    <text x="379" y="493" fill="#F8FBFF" font-family="'Segoe UI', sans-serif" font-size="20">Waterloo</text>
    <text x="559" y="493" fill="#F8FBFF" font-family="'Segoe UI', sans-serif" font-size="20">Builder</text>
  </g>

  <path d="M728 219C815 249 892 306 1040 278" stroke="url(#line)" stroke-opacity="0.22" stroke-width="2"/>
  <path d="M736 398C840 436 947 436 1070 382" stroke="url(#line)" stroke-opacity="0.18" stroke-width="2"/>
  <path d="M142 500C298 456 420 452 554 472C662 488 792 522 1052 454" stroke="url(#line)" stroke-opacity="0.32" stroke-width="2.5" stroke-linecap="round" stroke-dasharray="14 14">
    <animate attributeName="stroke-dashoffset" values="0;-168" dur="7.2s" repeatCount="indefinite"/>
  </path>

  <circle cx="1008" cy="262" r="4" fill="#7BF6D2">
    <animate attributeName="opacity" values="0.3;1;0.3" dur="3.6s" repeatCount="indefinite"/>
  </circle>
  <circle cx="950" cy="410" r="3" fill="#FFD36A">
    <animate attributeName="opacity" values="0.2;1;0.2" dur="4.4s" repeatCount="indefinite"/>
  </circle>
</svg>
